<svg id="Layer_1" data-name="Layer 1" xmlns="http://www.w3.org/2000/svg" xmlns:xlink="http://www.w3.org/1999/xlink" viewBox="0 0 516.94 516.94"><defs><style>.cls-1{fill:url(#linear-gradient);}.cls-2{fill:#fff;}</style><linearGradient id="linear-gradient" x1="485.89" y1="31.06" x2="31.06" y2="485.89" gradientUnits="userSpaceOnUse"><stop offset="0" stop-color="#3ac0f0"/><stop offset="0.25" stop-color="#3bb2e6"/><stop offset="0.71" stop-color="#3f8ccb"/><stop offset="1" stop-color="#4272b8"/></linearGradient></defs><title>logo</title><rect class="cls-1" width="516.94" height="516.94" rx="106.03"/><path class="cls-2" d="M420.78,162.47h-.16V125.06A29.32,29.32,0,0,0,391.3,95.78H125.44a29.31,29.31,0,0,0-29.28,29.28v74.85a29.32,29.32,0,0,0,29.28,29.28h67V391.93a29.32,29.32,0,0,0,29.28,29.28h74.47a29.32,29.32,0,0,0,29.28-29.28V229.17H391.3a29.32,29.32,0,0,0,29.32-29.26V162.55Zm-18.33-37.41v26.83l-28.76-16.6v18.18H325.51V125.2a29.19,29.19,0,0,0-2.2-11.11h68A11.14,11.14,0,0,1,402.45,125.06ZM296.23,114a11.1,11.1,0,0,1,11.11,11.11h0v28.41H267.48V142.85h18.17L269,114ZM307.34,211H267.48V171.64h39.86Zm-96.69-39.36H249.3v39.44H210.65ZM247.93,114l-16.68,28.9h18.18v10.62H210.65V125.2a11.14,11.14,0,0,1,11.11-11.11Zm-122.45,0h69.24a29.19,29.19,0,0,0-2.2,11.11v28.41H114.33V125.2a11.11,11.11,0,0,1,11-11.25h.18Zm0,97.05a11.11,11.11,0,0,1-11.11-11.11V171.64h78.15v39.44Zm85.21,180.91V229.17h38.65V403H221.68a11.12,11.12,0,0,1-11-11.1ZM296.27,403H267.48V229.17h39.86V391.91A11.1,11.1,0,0,1,296.23,403h0Zm106.18-203.1A11.13,11.13,0,0,1,391.34,211H325.51V171.64h48.18v18.18l28.76-16.6Z"/></svg>